<svg width="86" height="41" viewBox="0 0 86 41" fill="none" xmlns="http://www.w3.org/2000/svg">
<path d="M37.1248 7.27212H42.8028L39.8036 2.43226L34.2899 11.1834H31.7755L38.4806 0.682018C38.7682 0.25473 39.2612 0 39.7954 0C40.3295 0 40.8061 0.246512 41.0937 0.665583L47.8234 11.1834H45.3172L44.134 9.22778H38.382L37.1248 7.28033M63.1894 9.21957V0.0986057H61.053V10.1152C61.053 10.3864 61.168 10.6576 61.3652 10.8465C61.5706 11.0602 61.85 11.1752 62.1376 11.1752H71.842L73.1074 9.21957H63.1812M27.9628 7.59258C30.0335 7.59258 31.7015 5.9163 31.7015 3.84559C31.7015 1.77489 30.0335 0.0986057 27.9628 0.0986057H18.6446V11.1752H20.7728V2.05427H27.8231C28.8091 2.05427 29.6144 2.85133 29.6144 3.83738C29.6144 4.82343 28.8091 5.63692 27.8231 5.63692H21.8164L28.1764 11.167H31.266L26.9931 7.58437H27.9628M5.54656 11.1752H11.9805C15.0455 11.1752 17.5106 8.70189 17.5106 5.64514C17.5106 2.58838 15.0455 0.106823 11.9805 0.106823H5.54656C2.4898 0.106823 0.00823975 2.58838 0.00823975 5.64514C0.00823975 8.70189 2.4898 11.1752 5.54656 11.1752ZM11.8326 9.22778H5.68624C3.70593 9.22778 2.1036 7.61724 2.1036 5.64514C2.1036 3.67304 3.70593 2.06249 5.68624 2.06249H11.8326C13.8212 2.06249 15.4235 3.66482 15.4235 5.64514C15.4235 7.62545 13.8212 9.22778 11.8326 9.22778ZM52.2771 11.1752H58.8508L60.0916 9.22778H52.4168C50.4283 9.22778 48.8259 7.61724 48.8259 5.64514C48.8259 3.67304 50.4283 2.06249 52.4168 2.06249H58.6618L59.919 0.106823H52.2689C49.2121 0.106823 46.7224 2.58838 46.7224 5.64514C46.7224 8.70189 49.2121 11.1752 52.2689 11.1752M78.317 9.22778C76.6736 9.22778 75.2932 8.12669 74.8659 6.62297H83.9704L85.2276 4.6673H74.8741C75.3014 3.15536 76.6818 2.06249 78.3252 2.06249H84.5702L85.8192 0.106823H78.1774C75.1206 0.106823 72.639 2.58838 72.639 5.64514C72.639 8.70189 75.1206 11.1752 78.1774 11.1752H84.751L86 9.22778H78.317Z" fill="url(#paint0_linear_23240_9022)"/>
<path d="M7.12423 36.4264C7.12423 35.3089 6.34361 34.6351 5.02887 34.6186H0.00823975V40.5185H0.862817V38.3738H4.93849C5.66981 38.3738 6.11353 38.7436 6.11353 39.3517V40.5185H6.98454V39.3599C6.98454 38.7272 6.66408 38.2424 6.0971 37.9958C6.75446 37.7411 7.14067 37.1741 7.14067 36.4346L7.12423 36.4264ZM5.02887 37.5932H0.846382V35.3993H5.02887C6.17105 35.3993 6.26144 36.2374 6.26144 36.5003C6.26144 36.7633 6.17105 37.6014 5.02887 37.6014V37.5932ZM22.104 35.7855C21.6685 34.9062 21.1754 34.5447 20.3866 34.5447C19.5978 34.5447 19.0801 34.9144 18.661 35.7855L16.4178 40.3706L16.3438 40.5185H17.2641L17.2888 40.461L18.0858 38.8258H22.6627L23.4598 40.461L23.4844 40.5185H24.4048L24.3308 40.3706L22.0875 35.7855H22.104ZM18.4802 38.0534L19.4745 36.0155C19.7128 35.5307 19.9757 35.3335 20.3784 35.3335C20.781 35.3335 21.044 35.5307 21.2823 36.0155L22.2765 38.0534H18.4802ZM33.3532 37.5686C33.3532 39.5653 34.216 40.5021 36.0812 40.5185H40.6992V39.6886H36.1387C34.7336 39.6886 34.216 39.1134 34.216 37.5768C34.216 36.0402 34.7336 35.465 36.1387 35.465H40.6992V34.6268H36.0812C34.1913 34.6433 33.3532 35.5554 33.3532 37.5768V37.5686ZM50.3707 40.5185H51.2253V34.6268H50.3707V40.5185ZM67.9717 39.6639C67.1582 39.6639 66.9692 39.401 65.4902 37.4207L65.4244 37.3303C63.8303 35.202 63.403 34.6268 62.0143 34.6186H61.3159V40.5185H62.154V35.4732C62.9182 35.4732 63.1154 35.7279 64.5616 37.6179L64.7424 37.8479C66.3447 39.9433 66.7803 40.5103 68.1196 40.5185H68.8181V34.6186H67.9717V39.6639ZM85.1454 37.4782V39.6886H81.3984C79.9933 39.6886 79.4756 39.1134 79.4756 37.5686C79.4756 36.0238 79.9933 35.465 81.3984 35.465H85.9343V34.6268H81.3409C79.4756 34.6433 78.6128 35.58 78.6128 37.5686C78.6128 39.5571 79.4839 40.5103 81.3409 40.5267H85.9918V37.4864H85.1372L85.1454 37.4782Z" fill="url(#paint1_linear_23240_9022)"/>
<path d="M22.0547 30.9785H21.1837C11.5532 30.9785 0.00823975 31.1839 0.00823975 31.3318C0.00823975 31.4797 9.54006 31.8495 21.1919 31.8495H23.1311H63.9536H64.8246C74.455 31.8495 86 31.6523 86 31.4961C86 31.34 76.4682 30.9785 64.8164 30.9785H62.8771H22.0547Z" fill="url(#paint2_radial_23240_9022)"/>
<path d="M37.0426 20.3127V23.9528C37.0426 24.5609 36.5249 25.0457 35.8922 25.0457C35.2595 25.0457 34.7418 24.5527 34.7418 23.9528V20.3127H32.7368V24.339C32.7368 25.7031 34.142 26.8042 35.884 26.8042C37.626 26.8042 39.0311 25.7031 39.0311 24.339V20.3127H37.0426ZM43.5505 15.9905V26.5741H45.5637V15.9905H43.5505ZM40.1404 26.5741H42.1536V15.9905H40.1404V26.5741ZM30.2717 21.0769C30.8223 20.5592 31.1592 19.8689 31.1592 19.113C31.1592 18.4227 30.8962 17.7982 30.4361 17.297C29.9512 16.7711 29.1049 16.4671 27.9545 16.4671H24.5115V26.5659H28.9652C30.6743 26.5412 32.0466 25.2511 32.0466 23.6735C32.0466 22.5231 31.644 21.7014 30.2799 21.0769H30.2717ZM28.579 24.8238H26.648V18.2091H27.9956C28.5872 18.2091 29.0638 18.7514 29.0638 19.343C29.0638 19.9347 28.5872 20.4113 27.9956 20.4113H27.2971V22.2272H28.579C29.2939 22.2272 29.8362 22.8024 29.8362 23.5255C29.8116 24.2651 29.3596 24.7745 28.579 24.8238Z" fill="#EA1D2D"/>
<path d="M6.72979 19.4581C6.72979 17.8147 5.36575 16.4753 3.68947 16.4753C3.64017 16.4753 0 16.4753 0 16.4753V26.5741H2.14466V18.2091H3.23753C4.02637 18.2091 4.63443 18.8007 4.63443 19.532C4.63443 20.2634 3.9935 20.855 3.19644 20.855H2.6952V23.2708L4.83986 26.5741H7.37072L4.40436 22.3587C5.73552 22.0383 6.72157 20.8632 6.72157 19.4581H6.72979ZM10.4768 20.0497C8.63615 20.0497 7.14065 21.5617 7.14065 23.4269C7.14065 25.2922 8.63615 26.8042 10.4768 26.8042C11.8819 26.8042 12.9748 26.1714 13.5417 25.169L11.9065 24.413C11.7011 24.8649 11.2081 25.1772 10.6411 25.1772C9.85228 25.1772 9.27708 24.602 9.26887 23.92C9.26887 23.8707 9.26887 23.8542 9.26887 23.8542H13.7143C13.7307 23.7145 13.7307 23.5748 13.7307 23.4269C13.7636 21.2412 12.3174 20.0497 10.4768 20.0497ZM9.26887 22.6956C9.26887 22.0136 9.81941 21.4631 10.5014 21.4631C11.1834 21.4631 11.734 22.0136 11.734 22.6956H9.26887ZM21.7424 26.5741V15.9905H19.7292V21.0029C19.1951 20.477 18.4802 20.1483 17.6996 20.1483C16.0315 20.1483 14.6839 21.6274 14.6839 23.4434C14.6839 25.2593 16.0315 26.7384 17.6996 26.7384C18.4884 26.7384 19.1951 26.4015 19.7374 25.8674V26.5741H21.7424ZM18.2748 25.0293C17.4613 25.0293 16.7957 24.3062 16.7957 23.4105C16.7957 22.5148 17.4613 21.7917 18.2748 21.7917C19.0883 21.7917 19.7539 22.5148 19.7539 23.4105C19.7539 24.3062 19.0883 25.0293 18.2748 25.0293Z" fill="#EA1D2D"/>
<path d="M67.832 27.971C71.6349 27.971 74.7179 24.8881 74.7179 21.0851C74.7179 17.2821 71.6349 14.1992 67.832 14.1992C64.029 14.1992 60.946 17.2821 60.946 21.0851C60.946 24.8881 64.029 27.971 67.832 27.971Z" fill="#FCD700"/>
<path d="M85.9014 25.6948C85.9014 25.6948 85.8849 25.6538 85.8767 25.6373C85.8767 25.6045 85.8603 25.5551 85.8603 25.5141C85.8438 25.399 85.8356 25.284 85.7863 25.1772C85.7124 25.0046 85.548 24.8814 85.3673 24.8485C85.3508 24.7745 85.3179 24.717 85.3015 24.6924C85.1865 24.528 85.0139 24.413 84.8824 24.3308C84.8496 24.3062 84.8085 24.2815 84.7921 24.2651L84.7592 24.2404C84.677 24.1747 84.5702 24.1418 84.4634 24.1418C84.2826 24.1418 84.0936 24.2568 83.9786 24.3965C83.9621 24.3472 83.9293 24.224 83.9046 24.15C83.88 24.0514 83.8553 23.9693 83.8307 23.8953C83.8307 23.8953 83.8307 23.8706 83.8224 23.8542C83.7731 23.731 83.6663 23.4269 83.3294 23.3776C83.239 23.3612 83.1486 23.3612 83.0665 23.353C82.9021 23.353 82.8446 23.3201 82.82 23.3119C82.82 23.2955 82.8282 23.2708 82.8446 23.2379C82.8775 23.164 82.8939 23.0982 82.9103 23.0325C82.9761 22.8024 83.0254 22.4655 82.9679 22.1779C83.0418 22.1861 83.1322 22.1944 83.2226 22.1944C83.4938 22.1944 83.7814 22.1368 84.0279 22.03H84.0443C84.5291 21.7835 85.0139 21.2412 84.9893 20.5592V20.5427C84.9317 19.9511 84.6031 19.4006 83.9868 18.85C84.1429 18.8089 84.3155 18.7514 84.4716 18.6446C84.9153 18.3488 85.1043 17.8147 84.9975 17.1737V17.1326C84.9153 16.804 84.677 16.7793 84.6031 16.7793C84.5045 16.7793 84.4141 16.8204 84.3401 16.8861C84.3237 16.9026 84.3073 16.9108 84.2908 16.9272C84.2497 16.9601 84.2086 17.0012 84.1758 17.0258C84.0772 17.0833 83.9457 17.108 83.7978 17.1409C83.691 17.1655 83.5595 17.1902 83.4445 17.2312C82.8939 17.4202 82.5488 17.7161 82.4091 18.1187C82.3269 18.357 82.3598 18.6528 82.5077 18.9157V18.9322C82.6885 19.1951 82.9268 19.4252 83.1322 19.6306C83.428 19.9182 83.7074 20.1812 83.7649 20.5099C83.7731 20.5674 83.7896 20.6742 83.6006 20.8221C83.5266 20.8632 83.4116 20.8878 83.2965 20.8878C83.124 20.8878 82.9268 20.8385 82.7707 20.7564H82.7624C82.5241 20.6331 82.2776 20.4688 82.0393 20.3127C81.6531 20.0579 81.2587 19.795 80.7986 19.6389C80.5849 19.5485 80.363 19.4992 80.1658 19.4581C79.9111 19.4088 79.6728 19.3595 79.5085 19.228L79.4838 19.2116C79.4099 19.1623 79.3359 19.113 79.262 19.0554C79.0401 18.8911 78.7854 18.7103 78.4896 18.6364C78.3745 18.5953 78.2595 18.5788 78.1691 18.5706C78.0541 18.5542 77.9883 18.546 77.939 18.5131C77.8897 18.4802 77.8404 18.4392 77.7911 18.4063C77.5857 18.2502 77.372 18.094 77.142 17.979C76.7558 17.79 76.3696 17.6914 75.934 17.601C75.9094 17.601 75.8519 17.5271 75.8108 17.4778C75.745 17.3956 75.6629 17.3052 75.5561 17.223C75.2356 16.9683 74.8658 16.7382 74.3728 16.7382C74.3317 16.7382 74.2824 16.7382 74.2413 16.7382C73.9455 16.7547 73.6908 16.9519 73.5264 17.0916C73.1649 17.412 72.7705 17.6914 72.3925 17.9708C71.8009 18.3981 71.1928 18.8418 70.6587 19.417C70.0999 19.9922 69.8945 20.7153 69.7219 21.348C69.6973 21.4384 69.6726 21.5288 69.6398 21.6274C69.5905 21.7999 69.5494 21.9807 69.5001 22.1533C69.2782 23.0325 69.0728 23.8624 68.2511 24.3965C68.1196 24.4787 68.0456 24.6348 68.0621 24.7827C68.0785 24.9389 68.1853 25.0703 68.3332 25.1279C68.399 25.1525 68.514 25.1772 68.6455 25.1772C68.6455 25.2676 68.6866 25.3497 68.7441 25.4237C68.8016 25.4894 68.9084 25.5716 69.0974 25.5798H69.1139C69.6808 25.5798 70.0835 25.2511 70.4286 24.9142C70.5518 25.021 70.708 25.1361 70.9134 25.1772H70.9709H71.0367C71.2421 25.1525 71.4229 25.1279 71.6036 25.1361C71.768 25.1854 71.9405 25.2511 72.1131 25.3169C72.2446 25.3662 72.376 25.4155 72.5157 25.4648L72.5815 25.4894H72.639C73.0088 25.473 73.2142 25.1443 73.2964 25.021L73.3128 24.9964V24.9717C73.3128 24.9717 73.3457 24.9142 73.3539 24.8813L73.3785 24.9635C73.4278 25.1361 73.4771 25.3169 73.5922 25.4483C73.699 25.5716 73.8387 25.6373 74.003 25.6373C74.0605 25.6373 74.1181 25.6291 74.1592 25.6209H74.1756C74.1756 25.6209 74.1838 25.6373 74.192 25.6373C74.2578 25.7031 74.3564 25.8099 74.5125 25.8592C74.6604 25.9085 74.8165 25.9496 74.9644 25.9907C75.1452 26.04 75.3342 26.0893 75.4985 26.155H75.515C75.6464 26.2043 75.7943 26.2454 75.9505 26.2454C76.1888 26.2454 76.3367 26.155 76.4599 26.0482C76.6654 25.8838 76.7475 25.7031 76.7886 25.5305C76.8215 25.5305 76.8544 25.5141 76.9037 25.5058C77.1584 25.4237 77.4049 24.9553 77.4049 24.9553C77.4213 24.9224 77.446 24.8896 77.4624 24.8649C77.5282 24.7745 77.5528 24.6677 77.5528 24.5691C77.5528 24.3226 77.3638 24.1336 77.1173 24.1336H77.0762C77.0762 24.1336 76.5832 24.1336 76.4435 24.1336H76.4353C76.3778 24.1336 76.3202 24.15 76.2709 24.1665C76.2709 24.1665 76.2709 24.1665 76.2627 24.1582C76.2299 24.1172 76.1888 24.0103 76.1395 23.9857C76.1395 23.9857 76.1559 23.9857 76.1559 23.9775L76.2874 23.9939C76.3695 24.0021 76.4599 24.0103 76.5421 24.0103C76.8461 24.0103 77.1173 23.961 77.3802 23.9117C77.6103 23.8706 77.8486 23.8953 78.0869 23.8953C78.1116 23.8953 78.1362 23.8953 78.1609 23.8953H78.1773C78.2759 23.8953 78.3827 23.9035 78.4896 23.9117C78.5964 23.9199 78.7278 23.9364 78.8511 23.9364C78.9004 23.9364 78.9415 23.9364 78.9826 23.9364C79.1058 23.9364 79.2209 23.9117 79.3277 23.8789C79.3359 23.9364 79.3523 24.0103 79.3688 24.1007L79.3852 24.1747C79.4427 24.4376 79.5413 24.8403 80.0179 25.1525L80.0919 25.2018C80.3137 25.3497 80.4452 25.4319 80.7739 25.4812C80.8561 25.4976 81.0204 25.4894 81.119 25.4648C81.5381 25.3744 81.9983 25.4812 82.368 25.7524L82.4009 25.777C82.4009 25.777 82.4748 25.8263 82.5159 25.8674C82.5981 25.9414 82.7049 26.0317 82.8528 26.081C82.9432 26.1221 83.05 26.1386 83.1569 26.1386C83.3623 26.1386 83.4691 26.0728 83.5513 26.0317C83.5677 26.0482 83.5759 26.0728 83.5924 26.0893C83.6499 26.1714 83.7238 26.27 83.8307 26.3686C84.0279 26.5576 84.2826 26.5823 84.4552 26.5823C84.5373 26.5823 84.6113 26.5823 84.677 26.5741C84.7017 26.5741 84.7263 26.5741 84.751 26.5741C84.8003 26.5741 84.8414 26.5741 84.8742 26.5741C84.9235 26.5741 84.9564 26.5576 84.9728 26.5576C85.0632 26.6234 85.1536 26.6316 85.1947 26.6316C85.2276 26.6316 85.2686 26.6316 85.3015 26.6152L85.6959 26.4837C85.811 26.4508 85.9014 26.3686 85.9424 26.2618C86.0246 26.0728 85.9425 25.892 85.8849 25.7606L85.9014 25.6948ZM73.4689 23.7392C73.4689 23.7392 73.4525 23.7063 73.436 23.6899C73.4278 23.6734 73.4114 23.657 73.395 23.6324C73.3374 23.542 73.2881 23.468 73.2635 23.4023C73.3785 23.4105 73.51 23.4269 73.6333 23.4351L73.4607 23.7392H73.4689Z" fill="#FCD700"/>
<path d="M67.6102 24.2569L67.4048 24.15C67.224 24.0432 67.1089 23.846 66.9775 23.6324C66.9199 23.5338 66.8542 23.4269 66.7885 23.3365C66.7227 23.2462 66.6323 23.164 66.5584 23.0982C66.542 23.09 66.5255 23.0736 66.5173 23.0572C66.2954 22.4491 66.0571 21.7342 65.9996 20.9618C65.9832 20.7646 65.8764 20.4359 65.7531 20.2223C65.3998 19.6389 64.5781 18.6857 64.5288 18.6364C64.4959 18.6035 64.463 18.5706 64.4384 18.5378L64.4137 18.5131L62.9511 17.297L62.9264 17.2806C62.6224 17.0669 62.5074 17.0176 62.2691 16.9272C61.8911 16.7875 61.3734 16.8122 60.9954 16.9683H60.9708C60.8475 17.0505 60.7243 17.1244 60.6092 17.1984C60.4367 17.3134 60.2723 17.412 60.0998 17.4695H60.0669C59.9272 17.5435 59.7629 17.5928 59.5985 17.6421C59.2534 17.7489 58.859 17.8722 58.5385 18.168C58.4564 18.242 58.3906 18.2995 58.3413 18.357C58.2591 18.4309 58.1852 18.4967 58.1605 18.5213C58.1523 18.5213 58.1359 18.5213 58.0948 18.5213C57.5443 18.5213 57.1416 18.661 56.7308 18.9979H56.7143C56.4678 19.2362 56.2213 19.4416 55.9666 19.532C55.8598 19.5649 55.7283 19.5813 55.5804 19.5978H55.5639C55.3174 19.6224 55.2681 19.6224 55.0298 19.6799C54.6108 19.7785 54.2081 20.0908 53.8877 20.3373C53.748 20.4523 53.6494 20.5181 53.6083 20.5427C53.5836 20.5592 53.5425 20.5838 53.5179 20.6003C53.1645 20.8057 52.8523 20.9865 52.4825 20.9865H52.4661C52.2607 20.97 52.0717 20.8303 52.0059 20.6496C51.9484 20.4113 52.0142 20.1812 52.2114 19.9922C52.3346 19.8689 52.4825 19.7457 52.6222 19.6224C52.8687 19.4088 53.107 19.2116 53.2878 18.9733C53.5672 18.6035 53.5343 18.0201 53.2221 17.675C52.9838 17.412 52.5647 17.2806 52.236 17.2066H52.2114C52.2114 17.2066 52.1703 17.1902 52.1538 17.1902H52.1374C52.1374 17.1902 52.0635 17.1737 52.0224 17.1655C51.9566 17.1573 51.8991 17.1409 51.8416 17.1326C51.7266 17.0998 51.6115 17.0176 51.4883 16.9354C51.3979 16.8779 51.3075 16.8122 51.2089 16.7547L50.9377 16.6068L50.7734 16.8615C50.6419 17.0587 50.5926 17.2806 50.609 17.5353V17.5517C50.6666 18.0119 51.0363 18.4885 51.48 18.6939H51.4883C51.4883 18.6939 51.5211 18.7103 51.5376 18.7185C51.6444 18.7596 51.743 18.7761 51.8334 18.7843C51.5951 18.9897 51.3568 19.2033 51.1431 19.4581C50.7323 19.91 50.7076 20.6413 50.8966 21.1344C51.1349 21.7753 51.7841 22.1368 52.3182 22.2026C52.4086 22.219 52.5072 22.2272 52.6058 22.2272C52.7701 22.2272 52.9345 22.2026 53.0906 22.1779C53.0988 22.4244 53.107 22.5806 53.1235 22.671C53.1646 22.8764 53.2549 23.0982 53.3125 23.2462C53.3125 23.2462 53.3125 23.2544 53.3125 23.2626C53.1892 23.3365 53.0166 23.4105 52.9509 23.4269C52.8523 23.4351 52.7537 23.4434 52.6797 23.4516C52.6304 23.4516 52.5894 23.4516 52.5647 23.4516C52.4497 23.468 52.3511 23.5091 52.2689 23.5913C52.1621 23.6899 52.1045 23.8542 52.0142 24.0761C51.9813 24.1665 51.9402 24.2569 51.9073 24.3308C51.8827 24.3719 51.8416 24.413 51.7923 24.4458C51.7348 24.339 51.6362 24.2651 51.5787 24.2158H51.5704C51.4225 24.0925 51.1842 24.0925 51.0199 24.2076C50.9952 24.224 50.9706 24.2404 50.9459 24.2569L50.9295 24.2733C50.8227 24.3472 50.7076 24.4212 50.5762 24.528C50.494 24.602 50.4283 24.7006 50.4036 24.8238C50.3707 24.8238 50.3461 24.8321 50.3132 24.8485C50.116 24.9307 49.8859 25.1607 49.8695 25.399C49.8695 25.4812 49.8531 25.6373 49.8366 25.6866C49.8366 25.6866 49.8284 25.6948 49.812 25.7113C49.6805 25.8592 49.6394 26.1304 49.812 26.3029C49.927 26.4179 50.379 26.5412 50.4693 26.5412H50.5433L50.568 26.5248C50.5926 26.5166 50.6255 26.5083 50.6419 26.4919H50.7487C50.8062 26.5083 50.8638 26.5166 50.9459 26.533C51.061 26.5576 51.2007 26.5905 51.3404 26.5905C51.4965 26.5905 51.6362 26.5576 51.7594 26.4919C51.9895 26.3851 52.0963 26.1879 52.1867 26.0482C52.2114 26.0071 52.236 25.966 52.2607 25.9331C52.2771 25.9331 52.2853 25.9331 52.3018 25.9414C52.3675 25.9578 52.4414 25.9742 52.5236 25.9824C52.8934 25.9989 53.2138 25.7934 53.37 25.6702C53.4357 25.6209 53.4932 25.5634 53.5425 25.5141C53.6001 25.4565 53.6658 25.399 53.7151 25.3662C53.7726 25.3415 53.8466 25.3333 53.937 25.3333C54.0931 25.3333 54.2739 25.3662 54.43 25.3908C54.7504 25.473 55.0956 25.4319 55.3585 25.284C55.4982 25.2018 55.6379 25.1279 55.7529 25.0703H55.7694C55.8351 25.0293 55.8844 24.9964 55.9337 24.9717C56.1966 24.8238 56.3939 24.5116 56.5171 24.2733C56.5746 24.1582 56.665 23.9364 56.6897 23.8789C56.7143 23.8789 56.739 23.8789 56.7636 23.8789C56.9362 23.8789 57.117 23.8542 57.2731 23.8214C57.3799 23.8049 57.4867 23.7885 57.5689 23.7803H57.5853C57.5853 23.7803 57.6511 23.7803 57.6839 23.7803C57.8401 23.7803 58.0702 23.7967 58.2427 23.8214C58.3906 23.8378 58.4892 23.8542 58.6782 23.8624C58.7029 23.8624 58.7357 23.8624 58.7604 23.8624C58.8179 23.8624 58.8919 23.8707 58.9658 23.8707C59.163 23.8707 59.3191 23.8214 59.4506 23.7638C59.4835 23.7967 59.5492 23.8871 59.5903 23.92C59.5903 23.92 59.5821 23.92 59.5739 23.92C59.4506 23.92 59.3356 23.9693 59.2534 24.0514C59.1466 24.0021 58.9658 24.0021 58.8015 24.0103C58.6125 24.0268 58.4317 24.0514 58.2427 24.0925C58.0948 24.1254 57.9962 24.1911 57.9305 24.3226C57.8729 24.4541 57.8812 24.6102 57.9551 24.7499C58.0537 24.9307 58.1523 25.0868 58.2509 25.2593L58.292 25.3333C58.3413 25.4155 58.4563 25.5469 58.6946 25.5469C58.7275 25.5469 58.7604 25.5469 58.7933 25.5469C58.7933 25.5469 58.7932 25.5469 58.8015 25.5469C58.8015 25.5552 58.8179 25.5716 58.8179 25.5798C58.8919 25.7113 58.9822 25.8756 59.1466 26.0071C59.3109 26.1468 59.5328 26.229 59.7711 26.229C59.8779 26.229 59.9765 26.2125 60.0669 26.1879C60.5106 26.0482 60.9379 25.9085 61.357 25.6948H61.4145H61.4474C61.472 25.6948 61.5049 25.6948 61.5295 25.6948C61.7021 25.6784 61.9568 25.662 62.1458 25.4565L62.1622 25.4401L62.1787 25.4155C62.2526 25.3004 62.3266 25.1936 62.3923 25.0786C62.3923 25.095 62.3923 25.1032 62.4006 25.1196C62.4992 25.4155 62.795 25.5469 63.0497 25.5469H63.0661C63.3537 25.5305 63.6002 25.4401 63.8221 25.3662H63.8385C63.8385 25.3662 63.9043 25.3415 63.9289 25.3251H63.9536C64.1179 25.2429 64.3644 25.2347 64.652 25.284H64.6931H64.7342C65.0382 25.2676 65.2765 25.1114 65.4737 24.9553C65.8435 25.3497 66.3201 25.5469 66.8789 25.5469C66.8953 25.5469 66.9199 25.5469 66.9446 25.5469H67.035L67.0596 25.5305C67.2404 25.4894 67.3637 25.3497 67.3801 25.169C67.3801 25.1361 67.3801 25.095 67.3801 25.0621C67.413 25.0621 67.4458 25.0539 67.4787 25.0457C67.6513 25.0046 67.7827 24.8731 67.8074 24.7006C67.832 24.5198 67.7499 24.3555 67.5937 24.2733L67.6102 24.2569ZM62.7785 23.3283C62.7785 23.3283 62.7457 23.3612 62.7292 23.3776C62.6388 23.4598 62.5238 23.5666 62.4252 23.7063C62.3595 23.5995 62.3184 23.5173 62.2773 23.4434C62.4252 23.4187 62.5813 23.3776 62.6964 23.3201C62.721 23.3201 62.7457 23.3201 62.7703 23.3201C62.7703 23.3201 62.7703 23.3283 62.7703 23.3365L62.7785 23.3283Z" fill="#FCD700"/>
<path d="M50.4611 25.1361H50.4446C50.3378 25.1772 50.2146 25.3169 50.2064 25.3991C50.1817 25.7606 50.1735 25.7935 50.0749 25.9085C50.0502 25.9414 50.0256 26.0071 50.0584 26.04C50.0831 26.0646 50.4364 26.1797 50.4775 26.1797C50.4775 26.1797 50.535 26.0893 50.609 25.8428C50.6501 25.7113 50.6912 25.5552 50.7405 25.4237C50.7405 25.4155 50.7405 25.3991 50.7158 25.358C50.6747 25.3004 50.535 25.1361 50.4611 25.1361ZM50.8555 25.1279C50.8555 25.1279 50.9295 25.1772 50.987 25.1772C51.0198 25.1772 51.0609 25.169 51.0938 25.1443C51.291 25.0457 51.4964 24.6759 51.5047 24.6513C51.5293 24.5938 51.4553 24.5363 51.3732 24.4705H51.365C51.365 24.4705 51.2581 24.4377 51.2088 24.4705C51.176 24.4952 51.1431 24.5116 51.1102 24.5363C51.0034 24.602 50.8966 24.6759 50.7898 24.7663C50.7487 24.7992 50.724 24.8649 50.724 24.9142C50.724 24.9553 50.724 24.9882 50.7405 25.0046C50.7487 25.0128 50.8308 25.1032 50.8473 25.1197L50.8555 25.1279ZM67.4622 24.5609C67.3636 24.5116 67.2486 24.4541 67.2486 24.4541C66.9938 24.3062 66.8377 24.0515 66.698 23.8132C66.6405 23.7146 66.583 23.6242 66.5173 23.5338C66.4762 23.4763 66.4022 23.4105 66.3447 23.353C66.2872 23.3037 66.2379 23.2544 66.2297 23.2297C65.9914 22.5888 65.7366 21.8328 65.6709 20.9865C65.6627 20.855 65.5723 20.5756 65.4655 20.3948C65.1286 19.8525 64.3315 18.9158 64.2822 18.8665C64.2576 18.8336 64.2247 18.809 64.2 18.7843L64.1754 18.7597L62.7374 17.56C62.4498 17.3627 62.3594 17.3217 62.154 17.2477C62.0225 17.1984 61.8664 17.1738 61.702 17.1738C61.4966 17.1738 61.2912 17.2148 61.1269 17.2888C61.0118 17.3463 60.8968 17.4203 60.7899 17.4942C60.6092 17.6093 60.412 17.7325 60.2065 17.8065C60.0422 17.8804 59.8696 17.9297 59.7053 17.9872C59.3766 18.0858 59.0397 18.1927 58.7686 18.4392C58.6946 18.5131 58.6289 18.5707 58.5713 18.62C58.3248 18.85 58.3002 18.8747 58.0947 18.8747C57.6264 18.8747 57.2895 18.9897 56.9444 19.2691C56.6732 19.5156 56.3938 19.7539 56.0816 19.8607C55.9419 19.91 55.7857 19.9265 55.6132 19.9429C55.3749 19.9676 55.3338 19.9676 55.1119 20.0169C54.7668 20.099 54.4053 20.3784 54.1012 20.6167C54.0026 20.6989 53.863 20.7975 53.8054 20.8386C53.7726 20.8632 53.7315 20.8879 53.6986 20.9043C53.3206 21.1262 52.9591 21.3398 52.4989 21.3398C52.4907 21.3398 52.4743 21.3398 52.466 21.3398C52.1209 21.3152 51.8087 21.0769 51.7019 20.7646C51.6033 20.4113 51.7019 20.0497 51.9895 19.7704C52.1209 19.6389 52.2771 19.5074 52.4167 19.3841C52.655 19.1869 52.8769 18.9979 53.033 18.7843C53.2138 18.546 53.1892 18.1352 52.9919 17.9133C52.7865 17.6914 52.3428 17.5846 52.1702 17.5435H52.1374C52.1374 17.5435 52.0881 17.5271 52.0716 17.5271C51.9648 17.5024 51.858 17.4942 51.7594 17.4696C51.4882 17.3956 51.2828 17.1902 51.0445 17.0587C50.9541 17.1984 50.9212 17.3545 50.9377 17.5189C50.987 17.8804 51.2828 18.2502 51.6115 18.3981C51.6279 18.3981 51.6361 18.4063 51.6526 18.4145C51.7594 18.4556 51.8662 18.4638 51.973 18.4638C51.9977 18.4638 52.0141 18.4638 52.0388 18.4638C52.0634 18.4638 52.0798 18.4638 52.1045 18.4638C52.1702 18.4638 52.2442 18.4638 52.3181 18.4803C52.3839 18.4967 52.4496 18.5624 52.4578 18.6446C52.4578 18.6939 52.4414 18.7268 52.3839 18.7761C52.3264 18.8254 52.2688 18.8665 52.2195 18.9158C51.9319 19.1541 51.6443 19.3924 51.3978 19.6882C51.0774 20.0333 51.0609 20.6331 51.2088 21.0276C51.3978 21.537 51.9237 21.8246 52.3674 21.8821C52.4496 21.8986 52.5236 21.8986 52.6057 21.8986C52.8605 21.8986 53.107 21.8328 53.3453 21.7753C53.3535 21.7753 53.3617 21.7753 53.3699 21.7753C53.3781 21.7753 53.4028 21.7753 53.4028 21.8328C53.4028 21.9397 53.4192 22.0629 53.4192 22.178C53.4275 22.367 53.4357 22.5477 53.4521 22.6217C53.485 22.7942 53.5671 22.9914 53.6247 23.1311C53.6493 23.1887 53.6657 23.2297 53.674 23.2544C53.6986 23.3283 53.674 23.4187 53.6247 23.4598C53.4439 23.6242 53.0741 23.7556 53.0084 23.7639C52.9016 23.7803 52.7865 23.7803 52.6961 23.7885C52.655 23.7885 52.6222 23.7885 52.5975 23.7885C52.5564 23.7885 52.5236 23.8049 52.4989 23.8378C52.4496 23.8871 52.3921 24.035 52.3264 24.1994C52.2853 24.298 52.2442 24.4048 52.2031 24.487C52.0881 24.6759 51.8991 24.791 51.7101 24.8978C51.6608 24.9225 51.6197 24.9553 51.5704 24.98C51.4964 25.1032 51.4143 25.2265 51.3157 25.3087C51.2417 25.3826 51.1431 25.3991 51.0445 25.4073C50.8966 25.5716 50.8555 25.7935 50.8062 26.0071C50.8062 26.04 50.7898 26.0729 50.7815 26.1057V26.1386H50.798C50.8719 26.1386 50.9541 26.1632 51.0363 26.1797C51.1431 26.2043 51.2581 26.229 51.365 26.229C51.4718 26.229 51.554 26.2043 51.6361 26.1632C51.7758 26.0975 51.8498 25.9742 51.9237 25.851C51.973 25.7688 52.0223 25.6867 52.0881 25.6209C52.1291 25.5798 52.1785 25.5552 52.236 25.5552C52.2935 25.5552 52.351 25.5716 52.4085 25.588C52.4578 25.6045 52.5154 25.6127 52.5647 25.6209C52.8194 25.6373 53.0659 25.473 53.1809 25.3826C53.2302 25.3415 53.2878 25.2922 53.3371 25.2429C53.411 25.169 53.4932 25.095 53.5836 25.0375C53.6904 24.9882 53.8137 24.9635 53.9698 24.9635C54.167 24.9635 54.3642 25.0046 54.5285 25.0293C54.6189 25.0539 54.7093 25.0622 54.7915 25.0622C54.9476 25.0622 55.0955 25.0293 55.2106 24.9553C55.3502 24.8732 55.4981 24.7992 55.6132 24.7417C55.6789 24.7088 55.7364 24.6759 55.7858 24.6513C55.9912 24.5363 56.1637 24.224 56.2295 24.0925C56.287 23.9693 56.3938 23.7145 56.3938 23.7063L56.1555 23.5091V23.5256C56.1555 23.5256 55.9912 23.7885 55.8844 23.9035C55.4653 24.4787 54.775 24.5527 54.2245 24.5527C54.1834 24.5527 54.1506 24.5527 54.1095 24.5527C53.4274 24.5527 52.8769 24.7828 52.4743 25.2347C52.4578 25.2594 52.425 25.2594 52.4085 25.2347C52.4003 25.2265 52.4003 25.2101 52.4085 25.1854C52.4167 25.1361 52.425 25.1279 52.4496 25.0704C52.8769 24.4623 53.6082 24.3719 54.1999 24.3637C54.6354 24.3308 54.9558 24.2569 55.227 24.1172C55.5803 23.9364 55.8433 23.542 55.9419 23.2215C56.0076 23.0161 56.0405 22.7942 56.0734 22.5806C56.098 22.408 56.1227 22.2355 56.1637 22.0711C56.1637 22.0465 56.1966 22.0383 56.213 22.0383C56.213 22.0383 56.2213 22.0383 56.2295 22.0383C56.2541 22.0383 56.2952 22.0547 56.2952 22.0876C56.2377 22.4245 56.1555 22.8764 56.3116 23.2626C56.3856 23.4105 56.5335 23.4845 56.7718 23.4845C56.9197 23.4845 57.0758 23.4598 57.232 23.4352C57.347 23.4187 57.462 23.4023 57.5606 23.3941C57.6017 23.3941 57.6428 23.3941 57.6839 23.3941C57.8729 23.3941 58.0619 23.4352 58.2427 23.468C58.3988 23.5009 58.5631 23.5338 58.7275 23.542C58.7603 23.542 58.785 23.542 58.8179 23.542C58.8754 23.542 58.9329 23.5502 58.9986 23.5502C59.1383 23.5502 59.2369 23.5256 59.3109 23.4598C59.3602 23.4187 59.3437 23.353 59.3191 23.279V23.2626C59.3191 23.2626 59.3027 23.238 59.3027 23.2215C59.2698 23.1147 59.2205 22.9586 59.3027 22.8928C59.3109 22.8846 59.3355 22.8764 59.3437 22.8764C59.3602 22.8764 59.3766 22.8764 59.3848 22.9011C59.3931 22.9339 59.4013 22.9586 59.4095 22.9914C59.4424 23.1147 59.4834 23.2462 59.5656 23.353C59.73 23.5666 59.9929 23.7721 60.3134 23.9364C60.5188 24.0761 60.7735 24.3226 60.7899 24.6595C60.7899 24.8156 60.642 24.9142 60.5352 24.9882C60.3627 25.0786 60.0915 25.1772 59.9272 25.169C59.8203 25.169 59.7217 25.095 59.7217 25.0868C59.5492 24.9307 59.5738 24.8814 59.4588 24.6924C59.4013 24.5938 59.3437 24.4952 59.2616 24.4048C59.1547 24.2897 59.0233 24.2404 58.8425 24.2569C58.6699 24.2733 58.5138 24.3062 58.3248 24.3473C58.2837 24.3555 58.2591 24.3801 58.2427 24.413C58.2262 24.4541 58.2262 24.4952 58.2509 24.5363C58.3495 24.7088 58.4399 24.8732 58.5467 25.0375L58.5878 25.1115C58.6124 25.1525 58.6617 25.1608 58.7028 25.1608C58.7275 25.1608 58.7521 25.1608 58.7768 25.1608C58.8014 25.1608 58.8343 25.1608 58.8589 25.1608C58.9493 25.1608 58.9986 25.1772 59.0397 25.2265C59.0726 25.2758 59.0972 25.3251 59.1219 25.3662C59.1876 25.4812 59.2534 25.6045 59.3684 25.6949C59.4752 25.7853 59.6231 25.8346 59.7793 25.8346C59.845 25.8346 59.9189 25.8263 59.9765 25.8017C60.4284 25.662 60.8721 25.5141 61.283 25.2922H61.4227C61.4227 25.2922 61.4802 25.2922 61.5131 25.2922C61.661 25.284 61.8089 25.2676 61.9157 25.1608C62.0472 24.9635 62.1622 24.7663 62.269 24.5609C62.3594 24.3719 62.3594 24.1911 62.269 24.0515C62.0061 23.6242 61.9568 23.5091 61.85 23.2215L61.8417 23.2133C61.8089 23.2051 61.776 23.1887 61.7513 23.1804C61.6856 23.1558 61.6199 23.1311 61.5377 23.1311H61.5295C61.4391 23.1311 61.3734 23.164 61.3487 23.2133L61.8335 24.1747C61.8664 24.2487 61.8993 24.3226 61.8828 24.4377C61.8664 24.5527 61.6281 24.9225 61.5541 24.9718C61.5377 24.98 61.5213 24.9882 61.5131 24.9882C61.5131 24.9882 61.4802 24.9882 61.4966 24.9307C61.5377 24.7746 61.5952 24.413 61.587 24.298C61.5706 24.1665 61.1679 23.4927 61.1515 23.4598C61.0858 23.3448 61.0283 23.238 61.0283 23.1147C61.0283 23.0572 61.0776 23.0161 61.1186 22.9997C61.1926 22.975 61.2583 22.9668 61.3323 22.9504C61.5048 22.9093 61.6856 22.8764 61.7431 22.7778C61.9403 22.482 62.0554 22.178 62.1293 21.7507C62.1293 21.7342 62.1458 21.6931 62.1704 21.6931C62.1869 21.6931 62.2033 21.6931 62.2115 21.7342C62.2855 22.1369 62.1869 22.5559 61.9486 22.8928C61.9321 22.9093 61.9239 22.9504 61.9321 22.9832C61.9321 23.0161 61.9732 23.049 61.9732 23.049C62.0636 23.1147 62.4087 23.0736 62.647 22.9504C62.836 22.9504 63.0086 22.9175 63.1811 22.8928C63.2386 22.8846 63.2879 22.8764 63.3455 22.86C63.3619 22.8682 63.3783 22.8846 63.3783 22.9011C63.2304 23.0654 63.1482 23.2462 63.0989 23.4763C63.0579 23.5173 63.0168 23.5584 62.9675 23.5995C62.8114 23.7474 62.6388 23.9035 62.6306 24.109C62.6306 24.109 62.6306 24.1829 62.7045 24.1911C62.7292 24.1911 62.7621 24.1829 62.7867 24.1665C62.8196 24.1583 62.8442 24.1418 62.8689 24.1418C62.8935 24.1418 62.91 24.1665 62.9182 24.1911L62.7374 24.4541C62.6717 24.5609 62.6963 24.6842 62.7292 24.791C62.7456 24.8567 62.7374 24.906 62.7538 24.9553C62.7949 25.0868 62.9593 25.1525 63.0907 25.1525C63.329 25.1443 63.5427 25.0622 63.7481 24.9882C63.781 24.9718 63.8221 24.9635 63.8631 24.9471C64.0932 24.8485 64.389 24.8321 64.7506 24.8896C65.0382 24.8732 65.26 24.6842 65.4655 24.4952C65.5559 24.4952 65.6462 24.5527 65.7448 24.6513C66.0571 24.9882 66.4433 25.1525 66.9199 25.1525C66.9363 25.1525 66.9528 25.1525 66.9774 25.1525H67.0267C67.076 25.1361 67.0924 25.1115 67.0924 25.0786C67.0924 25.0375 67.0678 25.0046 67.0103 24.98L66.7473 24.8403C66.5337 24.7088 66.3036 24.5445 66.2379 24.3308C66.1721 24.1008 66.0407 23.8707 65.9421 23.7146C65.9256 23.6817 65.901 23.657 65.8763 23.6242C65.8352 23.5666 65.8024 23.5173 65.7695 23.4598C66.0571 23.5666 66.2214 23.7803 66.4187 24.1336C66.5666 24.3966 66.9445 24.6842 67.3061 24.6842C67.3554 24.6842 67.3965 24.6842 67.4458 24.6677C67.4869 24.6595 67.5115 24.6349 67.5115 24.602C67.5115 24.5691 67.5115 24.5445 67.4787 24.528L67.4622 24.5609ZM62.2772 20.2634C62.2772 20.2634 62.2526 20.3127 62.2362 20.3127C62.2279 20.3127 62.2033 20.3127 62.2033 20.2716C62.1293 19.8854 62.08 19.6964 61.9979 19.5156C61.9732 19.4581 61.9321 19.4088 61.9075 19.3677C61.8417 19.2773 61.7842 19.2034 61.85 19.0966C61.8664 19.0637 61.9157 19.0472 61.965 19.0472C61.9896 19.0472 62.0143 19.0472 62.0307 19.0637C62.1047 19.0966 62.1786 19.1869 62.2526 19.3348C62.4416 19.7128 62.2937 20.2552 62.2937 20.2552L62.2772 20.2634ZM64.7013 24.109C64.7013 24.109 64.6931 24.2158 64.6356 24.2651C64.5862 24.3144 64.3972 24.339 64.3069 24.3308C64.2083 24.3308 64.1754 24.3144 64.159 24.2815C64.1343 24.2487 64.1754 24.1829 64.1754 24.1829C64.1836 24.1583 64.2986 23.9282 64.5287 23.8625C64.5287 23.8625 64.6027 23.8378 64.6684 23.8625C64.7341 23.8953 64.7095 24.0679 64.7013 24.0925V24.109ZM65.3586 22.5888C65.3422 22.6792 65.3258 22.7203 65.3093 22.7449C65.3011 22.7696 65.2765 22.8107 65.2107 22.8107C65.1368 22.8107 65.145 22.7285 65.145 22.7121C65.145 22.7121 65.1368 22.4738 65.0875 22.3752C65.0382 22.2683 64.7999 21.9643 64.6602 21.9725C64.6273 21.9725 64.5369 22.03 64.4712 22.1122C64.389 22.219 64.389 22.2273 64.3644 22.2437C64.3397 22.2601 64.3069 22.2437 64.2986 22.1862C64.2904 22.1204 64.274 22.0711 64.2986 21.9561C64.3315 21.8411 64.3562 21.8082 64.389 21.726C64.389 21.726 64.463 21.5617 64.4876 21.5206C64.5616 21.4055 64.6602 21.4138 64.6602 21.4138C64.6849 21.4138 64.7752 21.4055 64.8656 21.5206C64.9724 21.6521 64.9478 21.6438 64.9807 21.6849C65.0135 21.7342 65.0382 21.7835 65.1286 21.8739C65.219 21.9725 65.3094 22.1533 65.3422 22.2683C65.3669 22.3834 65.3669 22.482 65.3504 22.5724L65.3586 22.5888ZM59.656 24.5198C59.6971 24.5773 59.7299 24.6513 59.7628 24.7253C59.8203 24.8485 59.8614 24.9471 59.9189 24.9635C59.9436 24.9635 59.9682 24.9718 59.9929 24.9718C60.1161 24.9718 60.2969 24.906 60.4202 24.8074C60.4941 24.7499 60.4695 24.7088 60.4366 24.6513C60.4284 24.6349 60.412 24.6184 60.4037 24.5938C60.3709 24.528 60.3462 24.4623 60.3298 24.3966C60.2969 24.2733 60.2641 24.1747 60.1326 24.1911C59.9436 24.2158 59.7628 24.2322 59.5656 24.2322C59.5656 24.2322 59.4999 24.2322 59.4834 24.2733C59.4588 24.3226 59.5081 24.3719 59.5656 24.4212C59.5985 24.4459 59.6313 24.4787 59.6478 24.5116L59.656 24.5198Z" fill="#EA1D2D"/>
<path d="M85.5974 25.8428C85.5727 25.8017 85.5563 25.7524 85.5481 25.7277C85.5398 25.6702 85.5316 25.6127 85.5234 25.5552C85.5152 25.4648 85.4988 25.3826 85.4741 25.3169C85.4412 25.2347 85.3508 25.1772 85.2605 25.1772C85.2276 25.1772 85.1947 25.1772 85.1701 25.2018C85.0304 25.2676 84.9564 25.3415 84.9729 25.4977C85.0468 25.7195 85.0879 25.8756 85.129 26.0975C85.129 26.1304 85.1536 26.2372 85.2112 26.2372C85.2112 26.2372 85.2111 26.2372 85.2194 26.2372L85.6056 26.1057C85.6056 26.1057 85.6384 26.0893 85.6467 26.0729C85.6713 26.0236 85.6302 25.9332 85.5891 25.851L85.5974 25.8428ZM85.0222 24.8814C84.9482 24.7663 84.8085 24.6759 84.7017 24.602C84.6524 24.5691 84.6113 24.5363 84.5784 24.5116L84.5538 24.4952C84.5538 24.4952 84.4963 24.4623 84.4634 24.4623C84.3401 24.4623 84.2087 24.6102 84.2005 24.6595C84.2005 24.7335 84.2991 24.8649 84.4387 25.0293L84.4716 25.0622C84.5374 25.1443 84.6195 25.1936 84.6935 25.1936C84.7756 25.1936 84.8332 25.169 84.9071 25.1032C84.9564 25.0539 85.0715 24.9389 85.0222 24.8649V24.8814ZM75.9012 24.3144C75.8272 24.3226 75.7615 24.3308 75.6876 24.3308C75.6465 24.3308 75.6136 24.3308 75.5807 24.3308C75.5479 24.3308 75.5232 24.3308 75.4986 24.3308C75.4575 24.3308 75.4164 24.3308 75.3835 24.339V24.3473C75.3835 24.3555 75.2438 24.5938 75.2603 24.7499C75.2767 24.9142 75.4493 24.9471 75.5725 24.9718C75.6136 24.98 75.6711 24.9882 75.7204 24.9882C75.8108 24.9882 75.8683 24.9553 75.9012 24.8978C75.9752 24.7006 76.0245 24.5445 76.0409 24.3966C76.0409 24.3719 76.0409 24.3555 76.0327 24.3473C76.008 24.3226 75.9669 24.3144 75.9423 24.3144C75.9341 24.3144 75.9259 24.3144 75.9094 24.3144H75.9012ZM84.7181 25.4566L84.7099 25.4484C84.4881 25.4648 84.3484 25.2758 84.2087 25.1032C84.1676 25.0457 84.1183 24.9882 84.0772 24.9389C84.0032 24.8567 83.9293 24.791 83.8636 24.7335C83.7814 24.6677 83.7157 24.602 83.691 24.5527C83.6581 24.487 83.6253 24.3555 83.5924 24.2404C83.5677 24.1501 83.5431 24.0679 83.5266 24.0104C83.5266 24.0021 83.5184 23.9857 83.5102 23.9775C83.4691 23.8707 83.4198 23.731 83.2801 23.7146C83.2062 23.7063 83.1322 23.6981 83.0583 23.6981C82.8529 23.6899 82.6474 23.657 82.5488 23.5091C82.4502 23.3777 82.4913 23.2544 82.5488 23.1147C82.5735 23.0572 82.5899 23.0079 82.6063 22.9504C82.6803 22.7038 82.7049 22.3998 82.6474 22.1862C82.6392 22.1533 82.631 22.1204 82.6146 22.0876C82.5817 21.9972 82.5488 21.8657 82.5735 21.8246C82.5981 21.7835 82.6228 21.7753 82.6556 21.7753C82.6885 21.7753 82.7296 21.7835 82.7707 21.8C82.7953 21.8 82.82 21.8082 82.8446 21.8164C82.9432 21.8411 83.0994 21.8657 83.2308 21.8657C83.4609 21.8657 83.6992 21.8164 83.9046 21.726C84.2991 21.537 84.677 21.1097 84.6606 20.5756C84.6113 20.0415 84.2744 19.5238 83.6499 18.9897C83.6335 18.9733 83.617 18.9651 83.6006 18.9486C83.5184 18.8829 83.4198 18.7925 83.4198 18.7186C83.4198 18.6446 83.617 18.5953 83.7403 18.5707C83.765 18.5707 83.7978 18.5542 83.8143 18.5542H83.8471C84.0032 18.5049 84.1676 18.4638 84.2991 18.3734C84.751 18.0694 84.7346 17.5353 84.6853 17.2395C84.6853 17.2395 84.6853 17.2231 84.6853 17.2148C84.677 17.1738 84.6688 17.1245 84.6277 17.1245C84.6195 17.1245 84.6031 17.1245 84.5949 17.1409C84.5784 17.1491 84.5702 17.1655 84.5538 17.182C84.5045 17.2313 84.447 17.2888 84.3812 17.3217C84.2415 17.4038 84.069 17.4449 83.8964 17.4778C83.7896 17.5024 83.6828 17.5189 83.5759 17.56C83.124 17.7161 82.8529 17.9379 82.746 18.2338C82.6967 18.3899 82.7214 18.5789 82.82 18.7597C82.9679 18.9897 83.1815 19.1952 83.387 19.3924C83.7074 19.7046 84.0443 20.0251 84.1183 20.4524C84.1594 20.7071 84.0608 20.9207 83.806 21.1015C83.6746 21.1837 83.502 21.2248 83.313 21.2248C83.0829 21.2248 82.8364 21.159 82.631 21.0522C82.368 20.9207 82.1133 20.7482 81.8668 20.5838C81.497 20.3373 81.119 20.0826 80.6918 19.9511C80.511 19.869 80.3056 19.8279 80.1084 19.7868C79.829 19.7293 79.5414 19.6717 79.3113 19.491C79.2291 19.4417 79.1552 19.3841 79.073 19.3266C78.8593 19.1705 78.6457 19.0144 78.3992 18.9569C78.3088 18.924 78.2184 18.9158 78.128 18.8993C77.9966 18.8829 77.8651 18.8583 77.75 18.7761C77.7007 18.735 77.6432 18.7021 77.5939 18.661C77.3967 18.5214 77.1913 18.3734 76.9941 18.2666C76.649 18.0941 76.271 18.0037 75.8601 17.9133C75.7286 17.8804 75.6465 17.7818 75.5561 17.675C75.4986 17.601 75.441 17.5271 75.3589 17.4778C75.0384 17.2231 74.7508 17.0587 74.3728 17.0587C74.34 17.0587 74.2989 17.0587 74.266 17.0587C74.0688 17.0751 73.8798 17.2231 73.7483 17.3299C73.3786 17.6586 72.9759 17.9462 72.5897 18.2255C72.0145 18.6446 71.4147 19.0719 70.9052 19.6307C70.404 20.1483 70.2232 20.7975 70.0424 21.422C70.0178 21.5124 69.9931 21.6028 69.9603 21.7014C69.9109 21.8739 69.8699 22.0465 69.8288 22.219C69.5987 23.1394 69.3604 24.0679 68.4401 24.6595C68.3826 24.7006 68.399 24.7746 68.4565 24.7992C68.4812 24.8074 68.9167 24.9389 69.2536 24.5527C69.4919 24.2733 69.6151 23.9939 69.8945 23.6981C69.9027 23.6899 69.9356 23.657 69.9603 23.6652C69.9767 23.6652 69.9849 23.6817 69.9767 23.7146C69.9438 23.8378 69.8699 23.9364 69.7959 24.0432C69.722 24.1501 69.648 24.2569 69.6151 24.3801C69.5247 24.6431 69.2782 24.8567 69.0646 25.0457C69.0646 25.0457 69.0317 25.0704 69.0071 25.095C68.9906 25.1197 68.9906 25.1279 68.9906 25.1279C68.9906 25.1854 69.0317 25.2183 69.1221 25.2265C69.6398 25.2265 70.0096 24.8567 70.3629 24.5034C70.3793 24.487 70.3958 24.4787 70.4204 24.4787C70.4368 24.4787 70.4533 24.4787 70.4779 24.487C70.5026 24.4952 70.5601 24.5527 70.6012 24.5938C70.7162 24.7006 70.8395 24.8074 70.9956 24.8403C71.1846 24.8156 71.3572 24.791 71.5297 24.791C71.579 24.791 71.6283 24.791 71.6694 24.791C71.8584 24.8485 72.0474 24.9225 72.2282 24.9882C72.3596 25.0375 72.4911 25.0868 72.6226 25.1279C72.7951 25.1279 72.9184 24.9635 73.0088 24.8156C73.0499 24.717 73.0334 24.6184 73.0088 24.5198C73.0006 24.4623 72.9841 24.4048 72.9924 24.3473C73.0252 24.3308 73.0663 24.3308 73.1156 24.3473C73.1567 24.3473 73.2142 24.3473 73.2389 24.3473C73.28 24.3473 73.3293 24.2897 73.321 24.224C73.2882 24.0515 73.1978 23.9446 73.1156 23.8132C73.0417 23.6981 72.9677 23.5913 72.9348 23.4763C72.8773 23.3201 72.7541 23.1887 72.639 23.0572C72.5075 22.9093 72.3761 22.7696 72.335 22.597C72.335 22.597 72.3268 22.5559 72.335 22.5477C72.3432 22.5395 72.3843 22.5477 72.3843 22.5477C72.45 22.5888 72.5075 22.6463 72.5651 22.6956C72.7623 22.8518 72.9595 23.0161 73.206 23.0572C73.4361 23.0818 73.6826 23.1065 73.9291 23.0901C73.9948 23.0818 74.0277 23.0243 74.0113 22.9668C73.9127 22.7614 73.8141 22.5395 73.7483 22.293C73.699 22.1122 73.584 21.6274 73.699 21.2659C73.7072 21.233 73.7319 21.2166 73.7565 21.2166C73.7565 21.2166 73.7565 21.2166 73.7648 21.2166C73.8059 21.2248 73.8305 21.2741 73.8387 21.3069V21.3562C73.8798 21.8493 73.9127 22.3176 74.2085 22.7121C74.2907 22.8435 74.4057 22.9093 74.5125 22.975C74.5865 23.0243 74.6769 23.0572 74.7344 23.1311C74.8001 23.2133 74.8083 23.353 74.7672 23.4352L74.3975 23.9857C74.3071 24.109 74.2249 24.2404 74.192 24.3801C74.1674 24.5198 74.1756 24.6513 74.192 24.7828V24.8156C74.192 24.8156 74.1756 24.7992 74.1674 24.7828C74.0195 24.5116 73.9866 24.2815 74.0606 24.109C74.1099 23.9939 74.4139 23.5666 74.4961 23.427C74.5207 23.3859 74.5454 23.3366 74.5207 23.3037C74.4879 23.2626 74.266 23.1722 74.2085 23.1722H74.2003C74.151 23.1887 74.1099 23.238 74.0852 23.279C74.0852 23.2873 74.0688 23.2955 74.0606 23.3119L73.6004 24.1418V24.1747C73.5675 24.2569 73.5429 24.3308 73.5593 24.4294C73.584 24.5527 73.6251 24.6842 73.6497 24.7828C73.6497 24.8074 73.6662 24.8403 73.6744 24.8649C73.7155 25.0046 73.7565 25.1443 73.8141 25.2183C73.8552 25.2676 73.9045 25.284 73.9702 25.284C74.0031 25.284 74.0441 25.284 74.077 25.2758C74.1345 25.2676 74.1921 25.2594 74.2414 25.2758C74.3071 25.2922 74.3564 25.3415 74.4057 25.3991C74.455 25.4566 74.5043 25.5059 74.5865 25.5305C74.7262 25.5798 74.8741 25.6127 75.022 25.6538C75.211 25.7031 75.4082 25.7524 75.5972 25.8263C75.704 25.8592 75.819 25.8921 75.9258 25.8921C76.0491 25.8921 76.1231 25.8592 76.2299 25.7688C76.3778 25.6456 76.4271 25.5305 76.46 25.358C76.4928 25.2018 76.5421 25.1854 76.6572 25.1854C76.7147 25.1854 76.7229 25.1854 76.7722 25.169C76.8297 25.1525 76.9941 24.9471 77.0845 24.7828C77.1091 24.7335 77.1338 24.7006 77.1584 24.6595C77.1831 24.6184 77.1913 24.5856 77.1913 24.5527C77.1913 24.4705 77.1255 24.4459 77.0762 24.4459H77.0516C77.0516 24.4459 76.5668 24.4459 76.4271 24.4459C76.2299 24.4541 76.1395 24.6513 76.0655 24.8156C76.0409 24.8814 76.0162 24.9471 75.9751 24.9964C75.9258 25.095 75.819 25.1525 75.6876 25.1443C75.6547 25.1443 75.5643 25.1197 75.5232 25.1115C75.2603 25.0457 74.9891 24.98 74.8741 24.717C74.8658 24.676 74.8494 24.5773 74.9152 24.5034C75.0548 24.339 75.2438 24.1336 75.4328 23.9857C75.6958 23.9282 75.9587 23.731 76.1066 23.4845C76.1395 23.4434 76.1559 23.3941 76.1724 23.3448C76.197 23.2708 76.2217 23.1969 76.2874 23.1558C76.3285 23.1311 76.3614 23.1394 76.3778 23.1804C76.4024 23.3201 76.3531 23.4516 76.3038 23.5831C76.2956 23.6159 76.2792 23.6406 76.271 23.6652V23.6899H76.2874C76.3614 23.6899 76.4353 23.6981 76.5093 23.6981C76.7804 23.6981 77.0434 23.6488 77.2899 23.6077C77.5364 23.5666 77.7911 23.5173 78.0623 23.5173C78.0869 23.5173 78.1198 23.5173 78.1445 23.5173C78.2595 23.5173 78.3745 23.5256 78.4896 23.5338C78.5964 23.542 78.7114 23.5502 78.8265 23.5502C78.8676 23.5502 78.9004 23.5502 78.9415 23.5502C79.2784 23.5338 79.5249 23.3776 79.5989 23.1394C79.6728 22.9339 79.6646 22.5724 79.5742 22.0711C79.5742 22.0465 79.5742 22.03 79.5742 22.03C79.5742 22.03 79.5742 22.03 79.5742 22.0218C79.5742 22.0054 79.5742 21.9807 79.5989 21.9725C79.6318 21.9561 79.6646 21.9725 79.6811 22.0136C79.8125 22.3752 79.8865 22.786 79.9194 23.0736C79.9604 23.353 80.0755 23.6324 80.2727 23.9282C80.5192 24.2897 80.9136 24.4952 81.3656 24.4952C81.4724 24.4952 81.5792 24.4787 81.686 24.4623C81.76 24.4541 81.7846 24.4623 81.8339 24.4623C82.4091 24.4623 82.9104 24.7088 83.2884 25.1854C83.2884 25.1854 83.2884 25.1936 83.2884 25.2101C83.2884 25.2265 83.2555 25.2511 83.2308 25.2429L83.1815 25.2018C82.8528 24.9471 82.516 24.6924 82.0969 24.6349C82.0229 24.6184 81.9408 24.6184 81.8586 24.6184C81.7353 24.6184 81.6203 24.6349 81.497 24.6431C81.382 24.6595 81.2752 24.6677 81.1601 24.6677C81.0122 24.6677 80.8972 24.6431 80.7739 24.602C80.2891 24.4459 79.8947 23.8789 79.7632 23.5338C79.7632 23.5256 79.7386 23.5009 79.7139 23.5009C79.6975 23.5009 79.6893 23.5009 79.6728 23.5173C79.6153 23.5502 79.6071 23.5749 79.5989 23.6077C79.5989 23.6406 79.64 23.8871 79.6564 23.9939C79.7221 24.2569 79.7632 24.5691 80.1577 24.8239C80.4206 24.9964 80.4945 25.0622 80.7821 25.1032C80.8314 25.1032 80.9547 25.1032 80.9958 25.095C81.119 25.0704 81.2423 25.0539 81.3738 25.0539C81.7764 25.0539 82.179 25.1936 82.5242 25.4401C82.5817 25.473 82.6392 25.5141 82.6885 25.5634C82.7625 25.6291 82.8364 25.6866 82.9268 25.7195C82.9843 25.7442 83.0418 25.7524 83.1076 25.7524C83.2637 25.7524 83.3048 25.7031 83.4116 25.6538C83.4609 25.6291 83.5102 25.6209 83.5431 25.6209C83.6663 25.6209 83.7403 25.7195 83.8225 25.8428C83.8718 25.9167 83.9375 25.9989 84.0115 26.0729C84.1265 26.1797 84.2826 26.1961 84.4059 26.1961C84.4716 26.1961 84.5374 26.1961 84.6113 26.1879C84.677 26.1879 84.751 26.1879 84.7921 26.1797C84.8332 26.1797 84.8578 26.1715 84.8578 26.1715V26.155C84.825 25.9249 84.7674 25.7031 84.6606 25.4648L84.7181 25.4566ZM71.7434 24.298C71.7434 24.298 71.6694 24.3637 71.5955 24.3637C71.5297 24.3637 71.464 24.3473 71.4311 24.3144C71.3407 24.2487 71.2832 24.1336 71.275 23.9939C71.275 23.9611 71.275 23.9282 71.3161 23.8953C71.3407 23.8789 71.3489 23.8789 71.3818 23.8789C71.4722 23.8789 71.6119 23.9364 71.6858 24.0268C71.6858 24.0268 71.8091 24.1911 71.7516 24.298H71.7434ZM71.8748 22.2601C71.842 22.3012 71.7927 22.3341 71.7434 22.3094C71.6941 22.293 71.653 22.2355 71.6283 22.1862C71.5955 22.1287 71.5708 22.0794 71.4968 22.0876C71.4968 22.0876 71.4968 22.0876 71.4886 22.0876C71.4229 22.0876 71.3736 22.1287 71.3161 22.1697C71.2914 22.1944 71.1846 22.2683 71.16 22.293C71.012 22.4163 70.8723 22.5395 70.8313 22.7121C70.8203 22.7559 70.8148 22.786 70.8148 22.8025C70.8066 22.86 70.7902 22.9257 70.7409 22.9586C70.7409 22.9586 70.7244 22.9586 70.7162 22.9586C70.6916 22.9586 70.6751 22.9504 70.6505 22.9339C70.634 22.9175 70.6176 22.9011 70.6176 22.8764C70.593 22.5806 70.6916 22.3176 70.897 22.1287C71.0285 22.0218 71.1353 21.8821 71.2421 21.7507C71.2914 21.6849 71.3489 21.6192 71.3982 21.5535C71.4393 21.5124 71.5051 21.5535 71.6201 21.6685C71.6694 21.7178 71.8091 21.9643 71.8748 22.1287C71.8995 22.2026 71.8748 22.2519 71.8748 22.2519V22.2601ZM74.3071 18.8418C74.2496 18.8911 74.1921 18.9486 74.1345 18.9979C73.9291 19.1869 73.7155 19.3841 73.5758 19.5978C73.51 19.6882 73.4607 19.795 73.4114 19.8936C73.4114 19.9018 73.395 19.9265 73.3703 19.9265C73.3621 19.9265 73.3457 19.9265 73.3375 19.91C73.2964 19.869 73.3375 19.5896 73.3786 19.4581C73.4936 19.1541 73.7483 18.8254 74.0852 18.5789C74.1181 18.5542 74.1674 18.546 74.2085 18.546C74.2742 18.546 74.3235 18.5789 74.34 18.6282C74.381 18.6939 74.3646 18.7761 74.2907 18.85L74.3071 18.8418Z" fill="#EA1D2D"/>
<defs>
<linearGradient id="paint0_linear_23240_9022" x1="43" y1="-0.00821708" x2="43" y2="11.1752" gradientUnits="userSpaceOnUse">
<stop stop-color="#EFEFF0"/>
<stop offset="1" stop-color="#A7A9AC"/>
</linearGradient>
<linearGradient id="paint1_linear_23240_9022" x1="-50.7158" y1="34.4954" x2="43" y2="40.65" gradientUnits="userSpaceOnUse">
<stop stop-color="#EFEFF0"/>
<stop offset="1" stop-color="#A7A9AC"/>
</linearGradient>
<radialGradient id="paint2_radial_23240_9022" cx="0" cy="0" r="1" gradientUnits="userSpaceOnUse" gradientTransform="translate(43.7026 31.0717) scale(30.4677 30.4677)">
<stop stop-color="#EFEFF0"/>
<stop offset="1" stop-color="#A7A9AC"/>
</radialGradient>
</defs>
</svg>
